<svg width="360" height="69" viewBox="0 0 360 69" fill="none" xmlns="http://www.w3.org/2000/svg">
    <path d="M221.858 67.387H260.704V58.87H234.945C238.477 44.7439 260.081 41.6279 260.081 25.8403C260.081 17.3233 254.264 11.0913 242.216 11.0913C234.53 11.0913 228.09 13.3764 223.52 15.6614L226.22 23.5552C230.375 21.6857 234.945 19.8161 240.554 19.8161C245.124 19.8161 249.279 21.6857 249.279 26.879C249.486 38.512 224.143 39.3429 221.858 67.387Z" fill="#00629A"/>
    <path d="M338.396 55.546C326.555 55.546 316.792 45.7828 316.792 33.942C316.792 22.1013 326.555 12.3379 338.396 12.3379C350.237 12.3379 360 22.1013 360 33.942C360 45.7828 350.237 55.546 338.396 55.546ZM338.396 16.2848C328.632 16.2848 320.739 24.1786 320.739 33.942C320.739 43.7055 328.632 51.5993 338.396 51.5993C348.159 51.5993 356.053 43.7055 356.053 33.942C356.053 24.1786 348.159 16.2848 338.396 16.2848Z" fill="#00629A"/>
    <path d="M350.652 33.9427H339.85V23.1406H336.942V36.851H350.652V33.9427Z" fill="#00629A"/>
    <path d="M0 3.40579H18.6959C32.4062 3.40579 38.6382 11.2996 38.6382 19.6089C38.6382 25.2176 35.9377 30.2032 30.9521 32.9037V33.1115C38.4305 34.9811 43.0006 41.0053 43.0006 48.4837C43.0006 58.455 35.5222 67.387 20.5655 67.387H0V3.40579ZM17.2418 30.2032C23.6815 30.2032 27.2129 26.6718 27.2129 21.6862C27.2129 16.9084 24.0969 13.1692 17.2418 13.1692H11.8407V30.2032H17.2418ZM19.1114 57.832C26.7975 57.832 31.1598 54.923 31.1598 48.4837C31.1598 43.0826 27.0052 39.7589 20.5655 39.7589H11.8407V57.832H19.1114Z" fill="#3FC0F0"/>
    <path d="M51.7252 7.1449C51.7252 3.198 54.8412 0.0820007 58.7881 0.0820007C62.735 0.0820007 66.0587 2.9903 66.0587 7.1449C66.0587 10.8841 62.9428 14.0001 58.7881 14.0001C54.6335 14.0001 51.7252 11.0918 51.7252 7.1449ZM52.9716 21.4785H64.6046V67.387H52.9716V21.4785Z" fill="#3FC0F0"/>
    <path d="M80.185 56.17V30.6188H71.8755V21.4786H80.185V10.8843L91.818 7.5605V21.4786H105.736L102.828 30.6188H91.818V53.2616C91.818 57.624 93.272 59.078 96.388 59.078C99.088 59.078 101.581 58.039 103.451 56.793L106.982 64.687C103.659 66.972 98.05 68.218 93.48 68.218C85.17 68.426 80.185 63.856 80.185 56.17Z" fill="#3FC0F0"/>
    <path d="M113.214 21.4781H122.977L124.224 26.6714C128.378 22.5168 132.118 20.4395 136.895 20.4395C138.973 20.4395 141.466 21.0626 143.335 22.309L139.181 32.0725C137.103 30.8261 135.234 30.6183 133.987 30.6183C130.871 30.6183 128.378 31.8647 124.639 35.1884V67.595H113.006V21.4781H113.214Z" fill="#3FC0F0"/>
    <path d="M147.905 7.1449C147.905 3.198 151.021 0.0820007 154.968 0.0820007C158.915 0.0820007 162.031 3.198 162.031 7.1449C162.031 10.8841 158.915 14.0001 154.761 14.0001C150.606 14.0001 147.905 11.0918 147.905 7.1449ZM149.152 21.4785H160.785V67.387H149.152V21.4785Z" fill="#3FC0F0"/>
    <path d="M184.259 44.3286L167.64 21.478H179.689L190.491 36.4348L201.5 21.478H213.549L196.723 44.3286L213.757 67.387H201.708L190.698 52.0147L179.481 67.387H167.432L184.259 44.3286Z" fill="#3FC0F0"/>
    <path d="M296.85 45.5749V11.0913H289.579L261.951 47.029V53.8842H286.879V67.594H296.85V53.8842H305.159V45.5749H296.85ZM286.879 37.4733V45.3671H280.231C278.154 45.3671 274.415 45.5749 273.168 45.5749L287.294 26.4635C287.294 28.1254 286.879 33.1109 286.879 37.4733Z" fill="#00629A"/>
</svg>
